<svg width="250" height="250" viewBox="0 0 250 250" fill="none" xmlns="http://www.w3.org/2000/svg">
<rect width="250" height="250" rx="125" fill="#D9D9D9"/>
<mask id="path-2-outside-1_211_3257" maskUnits="userSpaceOnUse" x="49" y="95" width="150" height="62" fill="black">
<rect fill="white" x="49" y="95" width="150" height="62"/>
<path d="M92.2061 112.079C91.1117 111.599 89.8304 111.118 88.3623 110.638C86.9209 110.131 85.3994 109.677 83.7979 109.276C82.223 108.876 80.6214 108.556 78.9932 108.315C77.3649 108.049 75.8301 107.915 74.3887 107.915C71.8796 107.915 69.9176 108.235 68.5029 108.876C67.0882 109.517 66.3809 110.598 66.3809 112.119C66.3809 112.84 66.6211 113.48 67.1016 114.041C67.6087 114.575 68.3161 115.082 69.2236 115.562C70.1312 116.016 71.2122 116.47 72.4668 116.924C73.748 117.351 75.1628 117.805 76.7109 118.285L79.6338 119.206C82.0895 119.953 84.2917 120.861 86.2402 121.929C88.1888 122.97 89.8304 124.211 91.165 125.652C92.5264 127.067 93.5674 128.695 94.2881 130.537C95.0088 132.379 95.3691 134.474 95.3691 136.823C95.3691 139.573 94.9287 142.082 94.0479 144.351C93.1937 146.593 91.8457 148.515 90.0039 150.116C88.1621 151.718 85.7998 152.959 82.917 153.84C80.0609 154.721 76.6175 155.161 72.5869 155.161C69.0101 155.161 65.4466 154.868 61.8965 154.28C58.373 153.693 54.8096 152.665 51.2061 151.197V137.984C54.6494 139.746 57.986 141.041 61.2158 141.868C64.4723 142.669 67.6755 143.069 70.8252 143.069C73.4144 143.069 75.2962 142.656 76.4707 141.828C77.6719 141.001 78.2725 139.853 78.2725 138.385C78.2725 137.504 78.0456 136.757 77.5918 136.143C77.1647 135.502 76.4574 134.915 75.4697 134.381C74.5088 133.847 73.2409 133.313 71.666 132.779C70.0911 132.219 68.1826 131.591 65.9404 130.897C63.6982 130.23 61.6162 129.389 59.6943 128.375C57.7992 127.361 56.1576 126.146 54.7695 124.731C53.3815 123.29 52.2871 121.622 51.4863 119.727C50.7122 117.831 50.3252 115.669 50.3252 113.24C50.3252 110.731 50.7656 108.436 51.6465 106.354C52.5273 104.271 53.8753 102.496 55.6904 101.028C57.5055 99.5335 59.8011 98.3724 62.5771 97.5449C65.3799 96.7174 68.7031 96.3037 72.5469 96.3037C74.0684 96.3037 75.6833 96.3704 77.3916 96.5039C79.0999 96.6374 80.835 96.8376 82.5967 97.1045C84.3851 97.3714 86.1468 97.7184 87.8818 98.1455C89.6169 98.5726 91.2585 99.0798 92.8066 99.667L92.2061 112.079ZM119.032 155.161C117.244 155.161 115.749 154.908 114.548 154.4C113.373 153.893 112.372 153.226 111.545 152.398C110.717 151.544 110.077 150.583 109.623 149.516C109.196 148.421 108.982 147.313 108.982 146.192C108.982 145.125 109.209 144.057 109.663 142.989C110.117 141.922 110.771 140.961 111.625 140.106C112.479 139.252 113.493 138.558 114.668 138.024C115.869 137.491 117.337 137.224 119.072 137.224C120.861 137.224 122.382 137.491 123.637 138.024C124.891 138.558 125.959 139.252 126.84 140.106C127.747 140.961 128.441 141.922 128.922 142.989C129.402 144.03 129.643 145.085 129.643 146.152C129.643 147.3 129.402 148.421 128.922 149.516C128.468 150.583 127.801 151.544 126.92 152.398C126.066 153.226 124.998 153.893 123.717 154.4C122.462 154.908 120.901 155.161 119.032 155.161ZM144.617 97.3848H161.954L183.495 125.812V97.3848H197.188V154H179.411L158.19 123.891V154H144.617V97.3848Z"/>
</mask>
<path d="M92.2061 112.079C91.1117 111.599 89.8304 111.118 88.3623 110.638C86.9209 110.131 85.3994 109.677 83.7979 109.276C82.223 108.876 80.6214 108.556 78.9932 108.315C77.3649 108.049 75.8301 107.915 74.3887 107.915C71.8796 107.915 69.9176 108.235 68.5029 108.876C67.0882 109.517 66.3809 110.598 66.3809 112.119C66.3809 112.84 66.6211 113.48 67.1016 114.041C67.6087 114.575 68.3161 115.082 69.2236 115.562C70.1312 116.016 71.2122 116.47 72.4668 116.924C73.748 117.351 75.1628 117.805 76.7109 118.285L79.6338 119.206C82.0895 119.953 84.2917 120.861 86.2402 121.929C88.1888 122.97 89.8304 124.211 91.165 125.652C92.5264 127.067 93.5674 128.695 94.2881 130.537C95.0088 132.379 95.3691 134.474 95.3691 136.823C95.3691 139.573 94.9287 142.082 94.0479 144.351C93.1937 146.593 91.8457 148.515 90.0039 150.116C88.1621 151.718 85.7998 152.959 82.917 153.84C80.0609 154.721 76.6175 155.161 72.5869 155.161C69.0101 155.161 65.4466 154.868 61.8965 154.28C58.373 153.693 54.8096 152.665 51.2061 151.197V137.984C54.6494 139.746 57.986 141.041 61.2158 141.868C64.4723 142.669 67.6755 143.069 70.8252 143.069C73.4144 143.069 75.2962 142.656 76.4707 141.828C77.6719 141.001 78.2725 139.853 78.2725 138.385C78.2725 137.504 78.0456 136.757 77.5918 136.143C77.1647 135.502 76.4574 134.915 75.4697 134.381C74.5088 133.847 73.2409 133.313 71.666 132.779C70.0911 132.219 68.1826 131.591 65.9404 130.897C63.6982 130.23 61.6162 129.389 59.6943 128.375C57.7992 127.361 56.1576 126.146 54.7695 124.731C53.3815 123.29 52.2871 121.622 51.4863 119.727C50.7122 117.831 50.3252 115.669 50.3252 113.24C50.3252 110.731 50.7656 108.436 51.6465 106.354C52.5273 104.271 53.8753 102.496 55.6904 101.028C57.5055 99.5335 59.8011 98.3724 62.5771 97.5449C65.3799 96.7174 68.7031 96.3037 72.5469 96.3037C74.0684 96.3037 75.6833 96.3704 77.3916 96.5039C79.0999 96.6374 80.835 96.8376 82.5967 97.1045C84.3851 97.3714 86.1468 97.7184 87.8818 98.1455C89.6169 98.5726 91.2585 99.0798 92.8066 99.667L92.2061 112.079ZM119.032 155.161C117.244 155.161 115.749 154.908 114.548 154.4C113.373 153.893 112.372 153.226 111.545 152.398C110.717 151.544 110.077 150.583 109.623 149.516C109.196 148.421 108.982 147.313 108.982 146.192C108.982 145.125 109.209 144.057 109.663 142.989C110.117 141.922 110.771 140.961 111.625 140.106C112.479 139.252 113.493 138.558 114.668 138.024C115.869 137.491 117.337 137.224 119.072 137.224C120.861 137.224 122.382 137.491 123.637 138.024C124.891 138.558 125.959 139.252 126.84 140.106C127.747 140.961 128.441 141.922 128.922 142.989C129.402 144.03 129.643 145.085 129.643 146.152C129.643 147.3 129.402 148.421 128.922 149.516C128.468 150.583 127.801 151.544 126.92 152.398C126.066 153.226 124.998 153.893 123.717 154.4C122.462 154.908 120.901 155.161 119.032 155.161ZM144.617 97.3848H161.954L183.495 125.812V97.3848H197.188V154H179.411L158.19 123.891V154H144.617V97.3848Z" fill="black"/>
<path d="M92.2061 112.079L91.8041 112.995L93.1347 113.579L93.2049 112.127L92.2061 112.079ZM88.3623 110.638L88.0304 111.581L88.0408 111.585L88.0513 111.588L88.3623 110.638ZM83.7979 109.276L83.5515 110.246L83.5553 110.247L83.7979 109.276ZM78.9932 108.315L78.8314 109.302L78.8393 109.304L78.8472 109.305L78.9932 108.315ZM67.1016 114.041L66.3423 114.692L66.3589 114.711L66.3766 114.73L67.1016 114.041ZM69.2236 115.562L68.7557 116.446L68.766 116.452L68.7764 116.457L69.2236 115.562ZM72.4668 116.924L72.1267 117.864L72.1386 117.869L72.1506 117.873L72.4668 116.924ZM76.7109 118.285L77.0114 117.331L77.0073 117.33L76.7109 118.285ZM79.6338 119.206L79.3333 120.16L79.3426 120.163L79.6338 119.206ZM86.2402 121.929L85.7597 122.806L85.769 122.811L86.2402 121.929ZM91.165 125.652L90.4313 126.332L90.4378 126.339L90.4445 126.346L91.165 125.652ZM94.0479 144.351L93.1156 143.989L93.1134 143.995L94.0479 144.351ZM82.917 153.84L82.6248 152.883L82.6223 152.884L82.917 153.84ZM61.8965 154.28L61.7321 155.267L61.7333 155.267L61.8965 154.28ZM51.2061 151.197H50.2061V151.87L50.8288 152.123L51.2061 151.197ZM51.2061 137.984L51.6615 137.094L50.2061 136.349V137.984H51.2061ZM61.2158 141.868L60.9676 142.837L60.977 142.839L61.2158 141.868ZM76.4707 141.828L75.9034 141.005L75.8947 141.011L76.4707 141.828ZM77.5918 136.143L76.7597 136.697L76.7732 136.717L76.7876 136.737L77.5918 136.143ZM75.4697 134.381L74.9841 135.255L74.9942 135.261L75.4697 134.381ZM71.666 132.779L71.3307 133.721L71.3378 133.724L71.345 133.726L71.666 132.779ZM65.9404 130.897L66.2361 129.942L66.2257 129.939L65.9404 130.897ZM59.6943 128.375L59.2225 129.257L59.2276 129.259L59.6943 128.375ZM54.7695 124.731L54.0492 125.425L54.0557 125.432L54.7695 124.731ZM51.4863 119.727L50.5605 120.105L50.5652 120.116L51.4863 119.727ZM55.6904 101.028L56.3193 101.806L56.3261 101.8L55.6904 101.028ZM62.5771 97.5449L62.294 96.5858L62.2915 96.5866L62.5771 97.5449ZM82.5967 97.1045L82.4469 98.0932L82.4491 98.0935L82.5967 97.1045ZM92.8066 99.667L93.8055 99.7153L93.8406 98.9897L93.1613 98.732L92.8066 99.667ZM92.608 111.163C91.4768 110.667 90.1639 110.175 88.6733 109.687L88.0513 111.588C89.4969 112.061 90.7465 112.53 91.8041 112.995L92.608 111.163ZM88.6942 109.694C87.2212 109.176 85.6698 108.714 84.0404 108.306L83.5553 110.247C85.1291 110.64 86.6206 111.085 88.0304 111.581L88.6942 109.694ZM84.0443 108.307C82.4358 107.898 80.8007 107.571 79.1391 107.326L78.8472 109.305C80.4421 109.54 82.0101 109.854 83.5515 110.246L84.0443 108.307ZM79.1549 107.329C77.4807 107.054 75.8914 106.915 74.3887 106.915V108.915C75.7688 108.915 77.2491 109.043 78.8314 109.302L79.1549 107.329ZM74.3887 106.915C71.8146 106.915 69.6904 107.241 68.0904 107.965L68.9154 109.787C70.1449 109.23 71.9445 108.915 74.3887 108.915V106.915ZM68.0904 107.965C67.2453 108.348 66.5517 108.891 66.0746 109.62C65.5966 110.35 65.3809 111.199 65.3809 112.119H67.3809C67.3809 111.518 67.5187 111.065 67.7482 110.715C67.9785 110.363 68.3459 110.045 68.9154 109.787L68.0904 107.965ZM65.3809 112.119C65.3809 113.085 65.7106 113.955 66.3423 114.692L67.8608 113.39C67.5316 113.006 67.3809 112.595 67.3809 112.119H65.3809ZM66.3766 114.73C66.9813 115.366 67.7873 115.934 68.7557 116.446L69.6915 114.679C68.8449 114.23 68.2361 113.783 67.8266 113.352L66.3766 114.73ZM68.7764 116.457C69.7276 116.933 70.8462 117.401 72.1267 117.864L72.8069 115.983C71.5783 115.539 70.5348 115.1 69.6708 114.668L68.7764 116.457ZM72.1506 117.873C73.4396 118.302 74.861 118.758 76.4145 119.24L77.0073 117.33C75.4645 116.851 74.0565 116.4 72.783 115.975L72.1506 117.873ZM76.4104 119.239L79.3333 120.16L79.9343 118.252L77.0114 117.331L76.4104 119.239ZM79.3426 120.163C81.7425 120.893 83.8798 121.776 85.7597 122.806L86.7208 121.052C84.7035 119.946 82.4365 119.014 79.925 118.249L79.3426 120.163ZM85.769 122.811C87.6315 123.806 89.1811 124.982 90.4313 126.332L91.8988 124.973C90.4797 123.44 88.7461 122.134 86.7114 121.047L85.769 122.811ZM90.4445 126.346C91.7139 127.665 92.6837 129.181 93.3568 130.902L95.2193 130.173C94.4511 128.209 93.3388 126.469 91.8856 124.959L90.4445 126.346ZM93.3568 130.902C94.0244 132.608 94.3691 134.576 94.3691 136.823H96.3691C96.3691 134.372 95.9931 132.15 95.2193 130.173L93.3568 130.902ZM94.3691 136.823C94.3691 139.465 93.9463 141.849 93.1156 143.989L94.9801 144.713C95.9112 142.314 96.3691 139.68 96.3691 136.823H94.3691ZM93.1134 143.995C92.3188 146.08 91.0676 147.866 89.3477 149.362L90.6601 150.871C92.6238 149.163 94.0686 147.105 94.9823 144.707L93.1134 143.995ZM89.3477 149.362C87.6336 150.852 85.4041 152.034 82.6248 152.883L83.2092 154.796C86.1955 153.884 88.6907 152.583 90.6601 150.871L89.3477 149.362ZM82.6223 152.884C79.8883 153.727 76.55 154.161 72.5869 154.161V156.161C76.685 156.161 80.2334 155.714 83.2117 154.795L82.6223 152.884ZM72.5869 154.161C69.0651 154.161 65.5562 153.872 62.0597 153.294L61.7333 155.267C65.337 155.863 68.9551 156.161 72.5869 156.161V154.161ZM62.0609 153.294C58.6166 152.72 55.1244 151.714 51.5834 150.271L50.8288 152.123C54.4948 153.617 58.1295 154.666 61.7321 155.267L62.0609 153.294ZM52.2061 151.197V137.984H50.2061V151.197H52.2061ZM50.7506 138.875C54.2497 140.665 57.6557 141.988 60.9676 142.837L61.464 140.899C58.3163 140.093 55.0491 138.827 51.6615 137.094L50.7506 138.875ZM60.977 142.839C64.3067 143.658 67.59 144.069 70.8252 144.069V142.069C67.7609 142.069 64.638 141.68 61.4546 140.897L60.977 142.839ZM70.8252 144.069C73.4762 144.069 75.6151 143.654 77.0467 142.646L75.8947 141.011C74.9774 141.657 73.3526 142.069 70.8252 142.069V144.069ZM77.038 142.652C78.5122 141.636 79.2725 140.179 79.2725 138.385H77.2725C77.2725 139.526 76.8316 140.365 75.9034 141.005L77.038 142.652ZM79.2725 138.385C79.2725 137.324 78.9959 136.36 78.396 135.548L76.7876 136.737C77.0953 137.153 77.2725 137.684 77.2725 138.385H79.2725ZM78.4238 135.588C77.8742 134.763 77.0153 134.08 75.9452 133.501L74.9942 135.261C75.8994 135.75 76.4552 136.24 76.7597 136.697L78.4238 135.588ZM75.9554 133.507C74.9225 132.933 73.5931 132.377 71.9871 131.832L71.345 133.726C72.8887 134.25 74.0951 134.761 74.9841 135.255L75.9554 133.507ZM72.0013 131.837C70.4093 131.271 68.4868 130.639 66.2361 129.942L65.6447 131.853C67.8785 132.544 69.773 133.167 71.3307 133.721L72.0013 131.837ZM66.2257 129.939C64.0415 129.289 62.0208 128.472 60.1611 127.491L59.2276 129.259C61.2116 130.307 63.355 131.171 65.6552 131.856L66.2257 129.939ZM60.1662 127.493C58.3529 126.523 56.7946 125.368 55.4833 124.031L54.0557 125.432C55.5205 126.925 57.2454 128.199 59.2225 129.257L60.1662 127.493ZM55.4899 124.038C54.1893 122.687 53.1619 121.123 52.4075 119.337L50.5652 120.116C51.4123 122.121 52.5737 123.893 54.0492 125.425L55.4899 124.038ZM52.4121 119.348C51.6953 117.593 51.3252 115.563 51.3252 113.24H49.3252C49.3252 115.775 49.7292 118.069 50.5606 120.105L52.4121 119.348ZM51.3252 113.24C51.3252 110.85 51.7442 108.689 52.5675 106.743L50.7255 105.964C49.787 108.182 49.3252 110.612 49.3252 113.24H51.3252ZM52.5675 106.743C53.3822 104.817 54.6276 103.174 56.3193 101.806L55.0616 100.251C53.123 101.819 51.6725 103.725 50.7255 105.964L52.5675 106.743ZM56.3261 101.8C58.0172 100.408 60.1859 99.3012 62.8628 98.5033L62.2915 96.5866C59.4163 97.4436 56.9938 98.6595 55.0547 100.256L56.3261 101.8ZM62.8603 98.504C65.5474 97.7107 68.7707 97.3037 72.5469 97.3037V95.3037C68.6356 95.3037 65.2124 95.7242 62.294 96.5858L62.8603 98.504ZM72.5469 97.3037C74.0394 97.3037 75.6281 97.3692 77.3137 97.5009L77.4695 95.5069C75.7384 95.3717 74.0973 95.3037 72.5469 95.3037V97.3037ZM77.3137 97.5009C78.9971 97.6324 80.7081 97.8298 82.4469 98.0932L82.7465 96.1158C80.9618 95.8454 79.2028 95.6424 77.4695 95.5069L77.3137 97.5009ZM82.4491 98.0935C84.2071 98.3559 85.9383 98.697 87.6428 99.1165L88.1209 97.1745C86.3553 96.7399 84.5631 96.3869 82.7443 96.1154L82.4491 98.0935ZM87.6428 99.1165C89.3417 99.5347 90.9444 100.03 92.452 100.602L93.1613 98.732C91.5725 98.1294 89.8921 97.6105 88.1209 97.1745L87.6428 99.1165ZM91.8078 99.6187L91.2072 112.031L93.2049 112.127L93.8055 99.7153L91.8078 99.6187ZM114.548 154.4L114.151 155.318L114.159 155.322L114.548 154.4ZM111.545 152.398L110.827 153.094L110.832 153.1L110.838 153.106L111.545 152.398ZM109.623 149.516L108.691 149.879L108.697 149.893L108.703 149.907L109.623 149.516ZM111.625 140.106L112.332 140.814L111.625 140.106ZM114.668 138.024L114.262 137.111L114.254 137.114L114.668 138.024ZM123.637 138.024L124.028 137.104L123.637 138.024ZM126.84 140.106L126.144 140.824L126.149 140.83L126.154 140.835L126.84 140.106ZM128.922 142.989L128.01 143.4L128.014 143.408L128.922 142.989ZM128.922 149.516L128.006 149.114L128.002 149.124L128.922 149.516ZM126.92 152.398L127.616 153.117L127.616 153.116L126.92 152.398ZM123.717 154.4L123.349 153.471L123.342 153.473L123.717 154.4ZM119.032 154.161C117.331 154.161 115.978 153.919 114.937 153.479L114.159 155.322C115.52 155.896 117.157 156.161 119.032 156.161V154.161ZM114.944 153.482C113.875 153.021 112.982 152.422 112.252 151.691L110.838 153.106C111.763 154.03 112.872 154.766 114.151 155.318L114.944 153.482ZM112.263 151.703C111.519 150.934 110.948 150.076 110.543 149.124L108.703 149.907C109.206 151.09 109.916 152.154 110.827 153.094L112.263 151.703ZM110.555 149.152C110.171 148.168 109.982 147.183 109.982 146.192H107.982C107.982 147.444 108.221 148.675 108.691 149.879L110.555 149.152ZM109.982 146.192C109.982 145.27 110.178 144.335 110.583 143.38L108.743 142.598C108.241 143.779 107.982 144.979 107.982 146.192H109.982ZM110.583 143.38C110.985 142.436 111.565 141.581 112.332 140.814L110.918 139.399C109.977 140.34 109.249 141.408 108.743 142.598L110.583 143.38ZM112.332 140.814C113.096 140.05 114.009 139.422 115.082 138.935L114.254 137.114C112.978 137.694 111.862 138.455 110.918 139.399L112.332 140.814ZM115.074 138.938C116.113 138.476 117.435 138.224 119.072 138.224V136.224C117.24 136.224 115.625 136.505 114.262 137.111L115.074 138.938ZM119.072 138.224C120.766 138.224 122.147 138.477 123.245 138.945L124.028 137.104C122.618 136.504 120.955 136.224 119.072 136.224V138.224ZM123.245 138.945C124.399 139.436 125.36 140.065 126.144 140.824L127.536 139.389C126.558 138.44 125.383 137.681 124.028 137.104L123.245 138.945ZM126.154 140.835C126.973 141.605 127.587 142.459 128.01 143.4L129.834 142.579C129.296 141.384 128.522 140.317 127.525 139.378L126.154 140.835ZM128.014 143.408C128.438 144.328 128.643 145.24 128.643 146.152H130.643C130.643 144.929 130.366 143.733 129.83 142.57L128.014 143.408ZM128.643 146.152C128.643 147.156 128.433 148.141 128.006 149.114L129.838 149.918C130.371 148.702 130.643 147.444 130.643 146.152H128.643ZM128.002 149.124C127.603 150.062 127.014 150.914 126.224 151.681L127.616 153.116C128.587 152.175 129.333 151.104 129.842 149.907L128.002 149.124ZM126.224 151.68C125.478 152.403 124.527 153.004 123.349 153.471L124.085 155.33C125.469 154.782 126.654 154.049 127.616 153.117L126.224 151.68ZM123.342 153.473C122.243 153.918 120.818 154.161 119.032 154.161V156.161C120.984 156.161 122.682 155.897 124.092 155.328L123.342 153.473ZM144.617 97.3848V96.3848H143.617V97.3848H144.617ZM161.954 97.3848L162.751 96.7808L162.451 96.3848H161.954V97.3848ZM183.495 125.812L182.698 126.416L184.495 128.788V125.812H183.495ZM183.495 97.3848V96.3848H182.495V97.3848H183.495ZM197.188 97.3848H198.188V96.3848H197.188V97.3848ZM197.188 154V155H198.188V154H197.188ZM179.411 154L178.594 154.576L178.893 155H179.411V154ZM158.19 123.891L159.008 123.315L157.19 120.736V123.891H158.19ZM158.19 154V155H159.19V154H158.19ZM144.617 154H143.617V155H144.617V154ZM144.617 98.3848H161.954V96.3848H144.617V98.3848ZM161.157 97.9887L182.698 126.416L184.292 125.209L162.751 96.7808L161.157 97.9887ZM184.495 125.812V97.3848H182.495V125.812H184.495ZM183.495 98.3848H197.188V96.3848H183.495V98.3848ZM196.188 97.3848V154H198.188V97.3848H196.188ZM197.188 153H179.411V155H197.188V153ZM180.229 153.424L159.008 123.315L157.373 124.467L178.594 154.576L180.229 153.424ZM157.19 123.891V154H159.19V123.891H157.19ZM158.19 153H144.617V155H158.19V153ZM145.617 154V97.3848H143.617V154H145.617Z" fill="black" mask="url(#path-2-outside-1_211_3257)"/>
</svg>
